<?xml version="1.0" encoding="UTF-8" standalone="no"?>
<svg
   xmlns:dc="http://purl.org/dc/elements/1.1/"
   xmlns:cc="http://creativecommons.org/ns#"
   xmlns:rdf="http://www.w3.org/1999/02/22-rdf-syntax-ns#"
   xmlns:svg="http://www.w3.org/2000/svg"
   xmlns="http://www.w3.org/2000/svg"
   xmlns:sodipodi="http://sodipodi.sourceforge.net/DTD/sodipodi-0.dtd"
   xmlns:inkscape="http://www.inkscape.org/namespaces/inkscape"
   viewBox="0 0 48 48"
   id="svg3336"
   version="1.1"
   inkscape:version="0.91 r13725"
   sodipodi:docname="plunjr.svg">
  <metadata
     id="metadata3363">
    <rdf:RDF>
      <cc:Work
         rdf:about="">
        <dc:format>image/svg+xml</dc:format>
        <dc:type
           rdf:resource="http://purl.org/dc/dcmitype/StillImage" />
      </cc:Work>
    </rdf:RDF>
  </metadata>
  <sodipodi:namedview
     pagecolor="#ffffff"
     bordercolor="#666666"
     borderopacity="1"
     objecttolerance="10"
     gridtolerance="10"
     guidetolerance="10"
     inkscape:pageopacity="0"
     inkscape:pageshadow="2"
     inkscape:window-width="1920"
     inkscape:window-height="1017"
     id="namedview3361"
     showgrid="false"
     inkscape:zoom="17.666667"
     inkscape:cx="18.707547"
     inkscape:cy="23.456845"
     inkscape:window-x="-8"
     inkscape:window-y="-8"
     inkscape:window-maximized="1"
     inkscape:current-layer="layer2" />
  <defs
     id="defs3338">
    <linearGradient
       id="linearGradient3764"
       x1="1"
       x2="47"
       gradientUnits="userSpaceOnUse"
       gradientTransform="matrix(0,-1,1,0,-1.5e-6,47.999998)">
      <stop
         style="stop-color:#efefef;stop-opacity:1"
         id="stop3341" />
      <stop
         offset="1"
         style="stop-color:#efefef;stop-opacity:1"
         id="stop3343" />
    </linearGradient>
  </defs>
  <g
     id="g3345">
    <path
       d="m 36.31 5 c 5.859 4.062 9.688 10.831 9.688 18.5 c 0 12.426 -10.07 22.5 -22.5 22.5 c -7.669 0 -14.438 -3.828 -18.5 -9.688 c 1.037 1.822 2.306 3.499 3.781 4.969 c 4.085 3.712 9.514 5.969 15.469 5.969 c 12.703 0 23 -10.298 23 -23 c 0 -5.954 -2.256 -11.384 -5.969 -15.469 c -1.469 -1.475 -3.147 -2.744 -4.969 -3.781 z m 4.969 3.781 c 3.854 4.113 6.219 9.637 6.219 15.719 c 0 12.703 -10.297 23 -23 23 c -6.081 0 -11.606 -2.364 -15.719 -6.219 c 4.16 4.144 9.883 6.719 16.219 6.719 c 12.703 0 23 -10.298 23 -23 c 0 -6.335 -2.575 -12.06 -6.719 -16.219 z"
       style="opacity:0.05"
       id="path3347" />
    <path
       d="m 41.28 8.781 c 3.712 4.085 5.969 9.514 5.969 15.469 c 0 12.703 -10.297 23 -23 23 c -5.954 0 -11.384 -2.256 -15.469 -5.969 c 4.113 3.854 9.637 6.219 15.719 6.219 c 12.703 0 23 -10.298 23 -23 c 0 -6.081 -2.364 -11.606 -6.219 -15.719 z"
       style="opacity:0.1"
       id="path3349" />
    <path
       d="m 31.25 2.375 c 8.615 3.154 14.75 11.417 14.75 21.13 c 0 12.426 -10.07 22.5 -22.5 22.5 c -9.708 0 -17.971 -6.135 -21.12 -14.75 a 23 23 0 0 0 44.875 -7 a 23 23 0 0 0 -16 -21.875 z"
       style="opacity:0.2"
       id="path3351" />
  </g>
  <g
     id="g3353">
    <path
       d="m 24 1 c 12.703 0 23 10.297 23 23 c 0 12.703 -10.297 23 -23 23 -12.703 0 -23 -10.297 -23 -23 0 -12.703 10.297 -23 23 -23 z"
       style="fill:url(#linearGradient3764);fill-opacity:1"
       id="path3355" />
  </g>
  <g
     id="g3357">
    <path
       d="m 40.03 7.531 c 3.712 4.084 5.969 9.514 5.969 15.469 0 12.703 -10.297 23 -23 23 c -5.954 0 -11.384 -2.256 -15.469 -5.969 4.178 4.291 10.01 6.969 16.469 6.969 c 12.703 0 23 -10.298 23 -23 0 -6.462 -2.677 -12.291 -6.969 -16.469 z"
       style="opacity:0.1"
       id="path3359" />
  </g>
  <g
     inkscape:groupmode="layer"
     id="layer2"
     inkscape:label="plunger"
     style="display:inline;opacity:1">
    <g
       id="g3385"
       transform="matrix(0.15625,0,0,0.15625,5.796875,5.796875)">
      <path
         id="path3369"
         d="M 0,0 233,0 233,233 0,233 0,0 Z"
         inkscape:connector-curvature="0"
         style="fill:none" />
      <path
         id="path3371"
         d="m 108.01,8.9 c -0.1,-3.98 3.07,-7.65 7.04,-8.1 4.89,-1.07 10.23,3.05 9.95,8.16 -0.01,56.57 0.04,113.14 -0.03,169.7 -5.66,0.02 -11.31,0.01 -16.96,0.02 0.01,-56.59 -0.04,-113.19 0,-169.78 z"
         inkscape:connector-curvature="0"
         style="fill:#f5d894" />
      <path
         id="path3373"
         d="m 103.16,180.11 c 0.88,-1.84 3.21,-1.2 4.85,-1.43 5.65,-0.01 11.3,0 16.96,-0.02 1.63,0.17 3.88,-0.31 4.88,1.38 1.59,2.15 -0.46,5.56 -3.18,4.87 -6.78,-0.1 -13.55,-0.11 -20.33,-0.02 -2.68,0.79 -4.85,-2.69 -3.18,-4.78 z"
         inkscape:connector-curvature="0"
         style="fill:#ea6f71" />
      <path
         id="path3375"
         d="m 106.34,184.89 c 6.78,-0.09 13.55,-0.08 20.33,0.02 0.41,5.05 3.66,10.42 9.14,10.88 8.47,0.13 17.45,2.7 23.15,9.32 5.46,5.51 7.3,13.42 7.9,20.91 -33.58,-0.02 -67.17,-0.04 -100.76,0.03 0.63,-7.48 2.47,-15.41 7.93,-20.91 5.22,-5.95 13.17,-8.93 20.96,-9.16 3.14,-0.07 6.48,-0.99 8.62,-3.42 1.74,-2.17 2.11,-5.05 2.73,-7.67 z"
         inkscape:connector-curvature="0"
         style="fill:#ef9182" />
      <path
         id="path3377"
         d="m 62.8,226.86 c 1.09,-0.33 2.19,-0.6 3.3,-0.81 33.59,-0.07 67.18,-0.05 100.76,-0.03 2.7,-0.45 4.63,2.64 3,4.85 -0.86,1.86 -3.22,1.41 -4.88,1.58 -27.67,-0.19 -55.35,0.03 -83.02,-0.14 -5.95,-0.08 -11.96,0.47 -17.87,-0.35 -1.73,-1.15 -1.38,-3.34 -1.29,-5.1 z"
         inkscape:connector-curvature="0"
         style="fill:#ea6f71" />
    </g>
  </g>
</svg>
